<?xml version="1.0" encoding="utf-8"?>
<!-- Generator: Adobe Illustrator 25.2.3, SVG Export Plug-In . SVG Version: 6.00 Build 0)  -->
<!DOCTYPE svg PUBLIC "-//W3C//DTD SVG 1.1//EN" "http://www.w3.org/Graphics/SVG/1.1/DTD/svg11.dtd" [
	<!ENTITY ns_extend "http://ns.adobe.com/Extensibility/1.0/">
	<!ENTITY ns_ai "http://ns.adobe.com/AdobeIllustrator/10.0/">
	<!ENTITY ns_graphs "http://ns.adobe.com/Graphs/1.0/">
	<!ENTITY ns_vars "http://ns.adobe.com/Variables/1.0/">
	<!ENTITY ns_imrep "http://ns.adobe.com/ImageReplacement/1.0/">
	<!ENTITY ns_sfw "http://ns.adobe.com/SaveForWeb/1.0/">
	<!ENTITY ns_custom "http://ns.adobe.com/GenericCustomNamespace/1.0/">
	<!ENTITY ns_adobe_xpath "http://ns.adobe.com/XPath/1.0/">
]>
<svg version="1.1" id="Livello_4" xmlns:x="&ns_extend;" xmlns:i="&ns_ai;" xmlns:graph="&ns_graphs;"
	 xmlns="http://www.w3.org/2000/svg" xmlns:xlink="http://www.w3.org/1999/xlink" x="0px" y="0px" viewBox="0 0 566.9 566.9"
	 style="enable-background:new 0 0 566.9 566.9;" xml:space="preserve">
<style type="text/css">
	.st0{fill:#F27649;stroke:#0E3B4F;stroke-width:21.7311;stroke-miterlimit:10;}
	.st1{fill:#0E3B4F;}
</style>
<metadata>
	<sfw  xmlns="&ns_sfw;">
		<slices></slices>
		<sliceSourceBounds  bottomLeftOrigin="true" height="551.8" width="551.8" x="7.6" y="7.6"></sliceSourceBounds>
	</sfw>
</metadata>
<circle class="st0" cx="283.5" cy="283.5" r="265"/>
<path class="st1" d="M508.2,343.1c0-12.3-9.9-22.2-22.2-22.2c-12.3,0-22.2,9.9-22.2,22.2c0,0,6.7,34.3-44.3,0.2v-0.2l-92-61.4
	l-1.3-0.9c-1.1-0.9-1.8-2.5-1.8-4s0.7-2.9,1.8-4l1.3-0.9l44.1-29.3l0,0c10.1-6.7,13-20.6,6-30.7c-6.7-10.3-20.6-13-30.7-6l0,0
	l-57.8,38.5h-0.2l-0.7,0.4l0,0c-0.7,0.4-1.6,0.7-2.5,0.7c-2.9,0-5.4-2.5-5.4-5.4v-34.5v-38.7c0-2.9-2.5-5.4-5.4-5.4H147.4
	c-12.3,0-22.2,9.9-22.2,22.2s9.9,22.2,22.2,22.2h83.3c2.9,0,5.4,2.5,5.4,5.4l0,0v18.1v47.7c0,1.6-0.7,3.1-1.8,4l-1.1,0.7l-85.8,57.1
	v0.2c-51.1,34-44.3-0.2-44.3-0.2c0-12.3-9.9-22.2-22.2-22.2s-22.2,9.9-22.2,22.2l0,0c-0.2,3.4-0.9,30.9,20.8,48.6
	c18.4,15.2,45.5,17,67.6,4.7l12.5-8.5l67-44.6l0,0l1.8-1.1c0.7-0.2,1.3-0.4,2-0.4c2.9,0,5.4,2.5,5.4,5.4l0,0v0.2v40.1
	c0,12.3,9.9,22.2,22.2,22.2c12.3,0,22.2-9.9,22.2-22.2v-69.6c0-2.9,2.5-5.4,5.4-5.4c0.7,0,1.3,0.2,2,0.4l1.8,1.1l0,0l117.4,78.2
	l12.5,8.5l0,0c22.4,12.5,49.3,10.5,67.6-4.7C509.1,373.8,508.4,346.3,508.2,343.1L508.2,343.1z"/>
</svg>
