<?xml version="1.0" encoding="utf-8"?>
<!-- Generator: Adobe Illustrator 25.0.0, SVG Export Plug-In . SVG Version: 6.00 Build 0)  -->
<!DOCTYPE svg PUBLIC "-//W3C//DTD SVG 1.1//EN" "http://www.w3.org/Graphics/SVG/1.1/DTD/svg11.dtd" [
	<!ENTITY ns_extend "http://ns.adobe.com/Extensibility/1.0/">
	<!ENTITY ns_ai "http://ns.adobe.com/AdobeIllustrator/10.0/">
	<!ENTITY ns_graphs "http://ns.adobe.com/Graphs/1.0/">
	<!ENTITY ns_vars "http://ns.adobe.com/Variables/1.0/">
	<!ENTITY ns_imrep "http://ns.adobe.com/ImageReplacement/1.0/">
	<!ENTITY ns_sfw "http://ns.adobe.com/SaveForWeb/1.0/">
	<!ENTITY ns_custom "http://ns.adobe.com/GenericCustomNamespace/1.0/">
	<!ENTITY ns_adobe_xpath "http://ns.adobe.com/XPath/1.0/">
]>
<svg version="1.1" xmlns:x="&ns_extend;" xmlns:i="&ns_ai;" xmlns:graph="&ns_graphs;"
	 xmlns="http://www.w3.org/2000/svg" xmlns:xlink="http://www.w3.org/1999/xlink" x="0px" y="0px" viewBox="0 0 566.9 566.9"
	 style="enable-background:new 0 0 566.9 566.9;" xml:space="preserve">
<style type="text/css">
	.Ombra_x0020_esterna{fill:none;}
	.Angoli_x0020_arrotondati_x0020_2_x0020_pt{fill:#FFFFFF;stroke:#000000;stroke-miterlimit:10;}
	.Riflessione_x0020_X_x0020_dinamica{fill:none;}
	.Smusso_x0020_morbido{fill:url(#SVGID_1_);}
	.Crepuscolo{fill:#FFFFFF;}
	.Fogliame_GS{fill:#FFDD00;}
	.Pompadour_GS{fill-rule:evenodd;clip-rule:evenodd;fill:#51AEE2;}
	.st0{display:none;}
	.st1{display:inline;}
	.st2{clip-path:url(#SVGID_3_);}
	.st3{display:inline;fill:none;stroke:#000000;stroke-width:4;stroke-miterlimit:10;}
	.st4{fill:none;stroke:#000000;stroke-width:6;stroke-miterlimit:10;}
	.st5{display:inline;opacity:0.51;}
	.st6{display:inline;fill:none;stroke:#000000;stroke-width:0.25;stroke-miterlimit:10;}
	.st7{display:inline;stroke:#000000;stroke-width:0.25;stroke-miterlimit:10;}
	.st8{display:inline;fill:none;stroke:#000000;stroke-width:0.5;stroke-miterlimit:10;}
	.st9{display:inline;fill:none;}
	.st10{display:inline;fill:none;stroke:#000000;stroke-width:1.1485;stroke-miterlimit:10;}
	.st11{display:inline;stroke:#000000;stroke-width:2.892939e-04;stroke-miterlimit:10;}
	.st12{display:inline;fill:none;stroke:#000000;stroke-width:2.892939e-04;stroke-miterlimit:10;}
	.st13{fill:none;}
</style>
<metadata>
	<sfw  xmlns="&ns_sfw;">
		<slices></slices>
		<sliceSourceBounds  bottomLeftOrigin="true" height="16383" width="16383" x="-7908" y="-8475"></sliceSourceBounds>
	</sfw>
</metadata>
<linearGradient id="SVGID_1_" gradientUnits="userSpaceOnUse" x1="0" y1="0" x2="0.7071" y2="0.7071">
	<stop  offset="0" style="stop-color:#E6E6EB"/>
	<stop  offset="0.1738" style="stop-color:#E2E2E6"/>
	<stop  offset="0.352" style="stop-color:#D5D4D8"/>
	<stop  offset="0.5323" style="stop-color:#C0BFC2"/>
	<stop  offset="0.7139" style="stop-color:#A4A2A4"/>
	<stop  offset="0.8949" style="stop-color:#828282"/>
	<stop  offset="1" style="stop-color:#6B6E6E"/>
</linearGradient>
<g id="Livello_1" class="st0">
	<g class="st1">
		<g>
			<defs>
				<rect id="SVGID_2_" x="-17.4" y="-931.4" width="1010.8" height="1428"/>
			</defs>
			<clipPath id="SVGID_3_">
				<use xlink:href="#SVGID_2_"  style="overflow:visible;"/>
			</clipPath>
			<g class="st2">
				<defs>
					<rect id="SVGID_4_" x="-17.4" y="-931.3" width="1009.4" height="1427.9"/>
				</defs>
				<clipPath id="SVGID_5_">
					<use xlink:href="#SVGID_4_"  style="overflow:visible;"/>
				</clipPath>
				<g transform="matrix(1 0 0 1 0 0)" style="clip-path:url(#SVGID_5_);">
					
						<image style="overflow:visible;" width="2480" height="3508" xlink:href="9F34CF56.jpg"  transform="matrix(0.407 0 0 0.407 -17.44 -931.2609)">
					</image>
				</g>
			</g>
		</g>
	</g>
	<g class="st1">
		<g>
			<path d="M78.2,241C78.3,241,78.3,240.9,78.2,241C78.2,240.9,78.2,241,78.2,241L78.2,241z"/>
		</g>
	</g>
</g>
<g id="Livello_2" class="st0">
	<g class="st1">
		<g>
			<path d="M-97.1,231.8c-3.7-0.3-6.8-1.7-9.9-3.5c-2.9-1.7-5.4-4.1-6.9-7c-1.5-2.8-2.1-6.2-1.7-9.4c0.5-3.2,2.2-5.9,4.6-8
				c2.5-2.2,5.5-3.7,8.4-5.3c3-1.7,5.9-3.5,8.5-5.8c4.9-4.3,8.9-10.3,10.7-16.6c2.1-6.9,2.6-15.2-0.6-21.8c-0.5-1.1-2.4-0.6-2.3,0.6
				c0.3,3.3,0.6,6.7,0.4,10.1c-0.2,3.3-0.9,6.5-2,9.5c-2.2,6.2-5.7,11.8-11,16c-5.4,4.3-12.5,6.3-17.1,11.6
				c-5,5.8-5.5,14.1-1.8,20.7c2,3.6,5.2,6.5,8.9,8.4c3.6,1.8,7.9,2.3,11.9,2.5C-95.8,233.8-95.8,231.9-97.1,231.8L-97.1,231.8z"/>
		</g>
	</g>
	<g class="st1">
		<g>
			<path d="M-85.1,160.7c0.1,0,0.1-0.2,0-0.2C-85.2,160.5-85.2,160.7-85.1,160.7L-85.1,160.7z"/>
		</g>
	</g>
	<g class="st1">
		<g>
			<path d="M-84.7,160c-0.3,0.9-0.7,1.8-0.8,2.8c-0.1,1.2,0,2.5,0,3.7c0,2.2-0.1,4.5,0,6.7c0.1,4.6,0.1,9.1,0.2,13.7
				c0.1,9.1,0.5,18.3,0.9,27.4c0.3,9.1,0.2,18.3,0.3,27.4c0,8.1,0.6,16.7-1.1,24.7c-1.5,7.1-5.3,13.1-11.4,17.1
				c-2.9,1.9-6,3.7-9.4,4.8c-4,1.2-8.3,1.8-12.5,1.4c-7-0.6-14.3-2.6-20.4-6.1c-5.2-3-9.8-7.8-10.5-14c-0.8-7.4,3.4-14.7,8.2-20
				c4.8-5.4,11.4-9.3,18.9-8.8c1.9,0.1,3.7,0.3,5.4,1.1c1.2,0.5,2.1-1,1-1.8c-3.3-2.5-7.2-3.8-11.3-3.4c-4.2,0.4-8,1.9-11.4,4.3
				c-6.6,4.6-12.2,11.9-14.6,19.7c-2.3,7.6-0.7,15.5,4.7,21.3c4.7,5.1,11.7,8.5,18.5,9.8c4.4,0.8,8.7,1,13.1,1c4.3,0,8.8-0.5,13-1.7
				c3.7-1,7.1-2.3,10.2-4.6c3.1-2.2,5.8-4.9,7.9-8.1c4.9-7.1,5.8-15.9,5.6-24.3c-0.2-9.6-0.8-19.1-1.2-28.7
				c-0.4-9.7-0.4-19.4-0.6-29.1c-0.2-9.8-0.5-19.6-1.1-29.4c-0.1-1.2-0.1-2.3-0.2-3.5c-0.1-1.2-0.5-2.2-0.9-3.3
				C-84.3,159.8-84.6,159.8-84.7,160L-84.7,160z"/>
		</g>
	</g>
	<g class="st1">
		<g>
			<path d="M-213.1-59.2c0.1,0,0.1-0.2,0-0.2C-213.3-59.4-213.3-59.2-213.1-59.2L-213.1-59.2z"/>
		</g>
	</g>
	<g class="st1">
		<g>
			<path d="M-114.1,392.3c-3.7-0.3-6.8-1.7-9.9-3.5c-2.9-1.7-5.4-4.1-6.9-7c-1.5-2.8-2.1-6.2-1.7-9.4c0.5-3.2,2.2-5.9,4.6-8
				c2.5-2.2,5.5-3.7,8.4-5.3c3-1.7,5.9-3.5,8.5-5.8c4.9-4.3,8.9-10.3,10.7-16.6c2.1-6.9,2.6-15.2-0.6-21.8c-0.5-1.1-2.4-0.6-2.3,0.6
				c0.3,3.3,0.6,6.7,0.4,10.1c-0.2,3.3-0.9,6.5-2,9.5c-2.2,6.2-5.7,11.8-11,16c-5.4,4.3-12.5,6.3-17.1,11.6
				c-5,5.8-5.5,14.1-1.8,20.7c2,3.6,5.2,6.5,8.9,8.4c3.6,1.8,7.9,2.3,11.9,2.5C-112.9,394.4-112.9,392.4-114.1,392.3L-114.1,392.3z"
				/>
		</g>
	</g>
	<g class="st1">
		<g>
			<path d="M-102.3,320.5c0.9,18.7,1.5,37.4,1.9,56.1c0.2,9.2,0.9,18.4,0.8,27.6c-0.1,8.4-1,17-4.3,24.8
				c-2.9,6.9-7.6,12.9-14.3,16.5c-6.2,3.3-13.7,4.4-20.5,3c-6.7-1.3-12.6-5.1-17.1-10.2c-4.5-5.2-8.1-13-6.6-19.9
				c0.8-3.8,2.9-7.3,5.2-10.3c2.1-2.7,4.6-5.2,7.6-6.9c5.2-3,12.4-3.3,17.1,0.8c1.2,1,2,2.1,2.7,3.5c0.8,1.6,3.4,0.5,2.8-1.2
				c-2.4-6.7-9.8-10.4-16.7-9.7c-8,0.9-14.5,6.6-18.8,13.1c-2.5,3.7-4.4,7.8-4.8,12.2c-0.5,4.5,0.8,9.1,2.5,13.2
				c3,6.9,8.4,12.8,15,16.3c7,3.8,15.1,5,22.8,3.3c7.8-1.6,14.9-6,19.9-12.2c11.9-14.6,11.2-34.5,10.6-52.3
				c-0.6-20.1-2.3-40.2-3.7-60.3c-0.2-2.5-0.4-5-0.6-7.5C-100.6,319.4-102.3,319.3-102.3,320.5L-102.3,320.5z"/>
		</g>
	</g>
	<g class="st1">
		<g>
			<path d="M719.5,75.3c2.6,8.1,3.1,16.7,5.1,24.9c1.7,6.7,4.7,13.2,8.8,18.8c4,5.5,9,10.3,15,13.7c6,3.4,13,5.1,19.9,5.1
				c7.7-0.1,15.5-2.4,21.7-7.1c1.5-1.1-0.1-3.2-1.5-2c-10.6,8.3-25.8,8.5-37.5,2.8c-12.1-5.9-20.5-17.4-24.3-30.1
				c-2.6-8.7-3.2-17.8-6.1-26.4C720.3,74.4,719.3,74.7,719.5,75.3L719.5,75.3z"/>
		</g>
	</g>
	<g class="st1">
		<g>
			<path d="M720.1,75.2c0.5,2.2,0.9,4.4,1.4,6.6c0.2,1.1,0.5,2.2,0.7,3.3c0.2,1.1,0.4,2.2,0.7,3.3c0.3,0.7,1.5,0.7,1.4-0.2
				c-0.1-1.1-0.5-2.1-0.8-3.2c-0.3-1.1-0.6-2.2-0.9-3.4c-0.6-2.2-1.1-4.4-1.7-6.6C720.8,74.4,720,74.7,720.1,75.2L720.1,75.2z"/>
		</g>
	</g>
	<g class="st1">
		<g>
			<path d="M720,76.7c1,7.9,2,15.9,4.3,23.5c2.1,6.6,5.3,12.5,9.4,18.1c3.9,5.3,8.8,10.1,14.5,13.4c6.1,3.5,13.1,5.6,20.1,5.9
				c8,0.4,16.3-1.3,23.2-5.5c3.1-1.9,0.3-6.8-2.9-4.9c-11.1,6.7-25.1,7.2-36.8,1.5c-5.5-2.6-10.4-6.2-14.5-10.7
				c-4.3-4.6-7.5-10.5-9.6-16.5c-2.8-8-3.9-16.5-5-24.9C722.7,74.9,719.8,74.9,720,76.7L720,76.7z"/>
		</g>
	</g>
	<g class="st1">
		<g>
			<path d="M694.5,84.2c-3.7-0.3-6.8-1.7-9.9-3.5c-2.9-1.7-5.4-4.1-6.9-7c-1.5-2.8-2.1-6.2-1.7-9.4c0.5-3.2,2.2-5.9,4.6-8
				c2.5-2.2,5.5-3.7,8.4-5.3c3-1.7,5.9-3.5,8.5-5.8c4.9-4.3,8.9-10.3,10.7-16.6c2.1-6.9,2.6-15.2-0.6-21.8c-0.5-1.1-2.4-0.6-2.3,0.6
				c0.3,3.3,0.6,6.7,0.4,10.1c-0.2,3.3-0.9,6.5-2,9.5c-2.2,6.2-5.7,11.8-11,16c-5.4,4.3-12.5,6.3-17.1,11.6
				c-5,5.8-5.5,14.1-1.8,20.7c2,3.6,5.2,6.5,8.9,8.4c3.6,1.8,7.9,2.3,11.9,2.5C695.8,86.2,695.7,84.2,694.5,84.2L694.5,84.2z"/>
		</g>
	</g>
	<g class="st1">
		<g>
			<path d="M706.4,12.3c0.9,18.7,1.5,37.4,1.9,56.1c0.2,9.2,0.9,18.4,0.8,27.6c-0.1,8.4-1,17-4.3,24.8c-2.9,6.9-7.6,12.9-14.3,16.5
				c-6.2,3.3-13.7,4.4-20.5,3c-6.7-1.3-12.6-5.1-17.1-10.2c-4.5-5.2-8.1-13-6.6-19.9c0.8-3.8,2.9-7.3,5.2-10.3
				c2.1-2.7,4.6-5.2,7.6-6.9c5.2-3,12.4-3.3,17.1,0.8c1.2,1,2,2.1,2.7,3.5c0.8,1.6,3.4,0.5,2.8-1.2c-2.4-6.7-9.8-10.4-16.7-9.7
				c-8,0.9-14.5,6.6-18.8,13.1c-2.5,3.7-4.4,7.8-4.8,12.2c-0.5,4.5,0.8,9.1,2.5,13.2c3,6.9,8.4,12.8,15,16.3c7,3.8,15.1,5,22.8,3.3
				c7.8-1.6,14.9-6,19.9-12.2c11.9-14.6,11.2-34.5,10.6-52.3c-0.6-20.1-2.3-40.2-3.7-60.3c-0.2-2.5-0.4-5-0.6-7.5
				C708,11.2,706.3,11.2,706.4,12.3L706.4,12.3z"/>
		</g>
	</g>
	<g class="st1">
		<g>
			<path d="M721.7,76.8c21.9-5.6,41.3-19.9,52.8-39.4c3.3-5.6,5.9-11.6,7.9-17.7c1.1-3.3-4.3-4.8-5.2-1.4c-3,10.3-8.3,19.8-15,28.2
				c-6.7,8.4-14.8,15.7-24.1,21.1c-5.3,3.1-10.9,5.6-16.8,7.4C720,75.4,720.5,77.2,721.7,76.8L721.7,76.8z"/>
		</g>
	</g>
	<g class="st1">
		<g>
			<path d="M690.1,271.2c2.6,8.1,3.1,16.7,5.1,24.9c1.7,6.7,4.7,13.2,8.8,18.8c4,5.5,9,10.3,15,13.7c6,3.4,13,5.1,19.9,5.1
				c7.7-0.1,15.5-2.4,21.7-7.1c1.5-1.1-0.1-3.2-1.5-2c-10.6,8.3-25.8,8.5-37.5,2.8c-12.1-5.9-20.5-17.4-24.3-30.1
				c-2.6-8.7-3.2-17.8-6.1-26.4C690.9,270.3,689.9,270.5,690.1,271.2L690.1,271.2z"/>
		</g>
	</g>
	<g class="st1">
		<g>
			<path d="M690.7,271.1c0.5,2.2,0.9,4.4,1.4,6.6c0.2,1.1,0.5,2.2,0.7,3.3c0.2,1.1,0.4,2.2,0.7,3.3c0.3,0.7,1.5,0.7,1.4-0.2
				c-0.1-1.1-0.5-2.1-0.8-3.2c-0.3-1.1-0.6-2.2-0.9-3.4c-0.6-2.2-1.1-4.4-1.7-6.6C691.4,270.3,690.6,270.5,690.7,271.1L690.7,271.1z
				"/>
		</g>
	</g>
	<g class="st1">
		<g>
			<path d="M690.7,272.6c1,7.9,2,15.9,4.3,23.5c2.1,6.6,5.3,12.5,9.4,18.1c3.9,5.3,8.8,10.1,14.5,13.4c6.1,3.5,13.1,5.6,20.1,5.9
				c8,0.4,16.3-1.3,23.2-5.5c3.1-1.9,0.3-6.8-2.9-4.9c-11.1,6.7-25.1,7.2-36.8,1.5c-5.5-2.6-10.4-6.2-14.5-10.7
				c-4.3-4.6-7.5-10.5-9.6-16.5c-2.8-8-3.9-16.5-5-24.9C693.3,270.8,690.4,270.8,690.7,272.6L690.7,272.6z"/>
		</g>
	</g>
	<g class="st1">
		<g>
			<path d="M665.1,280c-3.7-0.3-6.8-1.7-9.9-3.5c-2.9-1.7-5.4-4.1-6.9-7c-1.5-2.8-2.1-6.2-1.7-9.4c0.5-3.2,2.2-5.9,4.6-8
				c2.5-2.2,5.5-3.7,8.4-5.3c3-1.7,5.9-3.5,8.5-5.8c4.9-4.3,8.9-10.3,10.7-16.6c2.1-6.9,2.6-15.2-0.6-21.8c-0.5-1.1-2.4-0.6-2.3,0.6
				c0.3,3.3,0.6,6.7,0.4,10.1c-0.2,3.3-0.9,6.5-2,9.5c-2.2,6.2-5.7,11.8-11,16c-5.4,4.3-12.5,6.3-17.1,11.6
				c-5,5.8-5.5,14.1-1.8,20.7c2,3.6,5.2,6.5,8.9,8.4c3.6,1.8,7.9,2.3,11.9,2.5C666.4,282,666.4,280.1,665.1,280L665.1,280z"/>
		</g>
	</g>
	<g class="st1">
		<g>
			<path d="M677,208.1c0.9,18.7,1.5,37.4,1.9,56.1c0.2,9.2,0.9,18.4,0.8,27.6c-0.1,8.4-1,17-4.3,24.8c-2.9,6.9-7.6,12.9-14.3,16.5
				c-6.2,3.3-13.7,4.4-20.5,3c-6.7-1.3-12.6-5.1-17.1-10.2c-4.5-5.2-8.1-13-6.6-19.9c0.8-3.8,2.9-7.3,5.2-10.3
				c2.1-2.7,4.6-5.2,7.6-6.9c5.2-3,12.4-3.3,17.1,0.8c1.2,1,2,2.1,2.7,3.5c0.8,1.6,3.4,0.5,2.8-1.2c-2.4-6.7-9.8-10.4-16.7-9.7
				c-8,0.9-14.5,6.6-18.8,13.1c-2.5,3.7-4.4,7.8-4.8,12.2c-0.5,4.5,0.8,9.1,2.5,13.2c3,6.9,8.4,12.8,15,16.3c7,3.8,15.1,5,22.8,3.3
				c7.8-1.6,14.9-6,19.9-12.2c11.9-14.6,11.2-34.5,10.6-52.3c-0.6-20.1-2.3-40.2-3.7-60.3c-0.2-2.5-0.4-5-0.6-7.5
				C678.6,207,676.9,207,677,208.1L677,208.1z"/>
		</g>
	</g>
	<g class="st1">
		<g>
			<path d="M692.4,272.7c21.9-5.6,41.3-19.9,52.8-39.4c3.3-5.6,5.9-11.6,7.9-17.7c1.1-3.3-4.3-4.8-5.2-1.4c-3,10.3-8.3,19.8-15,28.2
				c-6.7,8.4-14.8,15.7-24.1,21.1c-5.3,3.1-10.9,5.6-16.8,7.4C690.7,271.2,691.2,273,692.4,272.7L692.4,272.7z"/>
		</g>
	</g>
	<circle class="st3" cx="690.6" cy="277.5" r="100.3"/>
	<g class="st1">
		<g>
			<path d="M755.9,530.2c-1.7-0.1-3.1-0.5-4.6-1.2c-1.8-0.9-3-1.9-4.5-2.8c-0.3-0.2-0.6-0.4-1-0.6c-0.2-0.1-0.3-0.2-0.5-0.3
				c0.4,0.3-0.1-0.1-0.2-0.1c-0.7-0.6-1.3-1.2-1.9-1.8c-0.3-0.3-0.5-0.6-0.8-0.9c-0.5-0.6-0.2-0.2-0.1-0.1c-0.1-0.2-0.2-0.3-0.3-0.5
				c-0.5-0.7-0.9-1.5-1.3-2.3c-0.1-0.2-0.2-0.3-0.2-0.5c0.3,0.7,0.1,0.1,0,0c-0.1-0.4-0.2-0.7-0.4-1.1c-0.3-0.8-0.5-1.7-0.6-2.6
				c-0.2-0.8,0-0.1,0,0.1c0-0.2,0-0.4-0.1-0.6c0-0.4-0.1-0.9-0.1-1.3c0-0.4,0-0.7,0-1.1c0-0.2,0.1-0.5,0.1-0.7c0,0.4-0.1,0.6,0,0.1
				c0.2-0.8,0.3-1.6,0.6-2.3c0.1-0.2,0.1-0.3,0.2-0.5c-0.1,0.2-0.4,0.8,0,0.1c0.2-0.4,0.4-0.8,0.6-1.1c0.2-0.4,0.5-0.7,0.7-1.1
				c0.5-0.7-0.4,0.5,0.2-0.2c0.6-0.6,1.1-1.2,1.8-1.8c0.1-0.1,1.1-0.9,0.6-0.5c-0.5,0.4,0.6-0.4,0.7-0.5c0.7-0.5,1.4-0.9,2.2-1.4
				c1.4-0.9,2.9-1.7,4.4-2.5c3.2-1.8,6.2-3.7,9-6.1c5.1-4.5,9.6-11,11.3-17.7c1-3.8,1.5-7.7,1.3-11.6c-0.1-2-0.3-4-0.7-6
				c-0.4-2-1.4-3.8-2.6-5.5c-1.5-2-4.3-1.3-4.5,1.2c-0.1,1.5-0.4,3.1-0.3,4.9c0.1,1.7,0.1,3.4-0.1,5.2c0,0.2-0.2,1.4,0,0.5
				c0,0.4-0.1,0.7-0.2,1c-0.1,0.9-0.3,1.7-0.5,2.6c-0.4,1.6-0.9,3.2-1.5,4.8c-0.1,0.2-0.4,0.9-0.1,0.3c0.4-0.9-0.4,1-0.4,0.9
				c-0.2,0.4-0.3,0.8-0.4,1.2c-0.4,1.1,0.2-0.5-0.1,0.3c-0.2,0.4-0.4,0.9-0.6,1.3c-0.7,1.5-1.6,2.9-2.5,4.3
				c-0.2,0.3-0.4,0.6-0.6,0.9c-0.1,0.1-0.9,1.2-0.5,0.7c0.4-0.5-0.4,0.5-0.5,0.6c-0.3,0.4-0.6,0.7-0.9,1.1c-1.1,1.2-2.4,2.3-3.6,3.4
				c-0.5,0.4,0.1,0.2,0.1-0.1c0,0.1-0.4,0.3-0.4,0.3c-0.3,0.2-0.7,0.5-1,0.7c-0.7,0.5-1.5,0.9-2.2,1.4c-1.6,0.9-3.2,1.8-4.7,2.7
				c-3.2,1.8-6.4,3.9-8.8,6.7c-5.6,6.5-6.3,16-2,23.4c2.3,3.8,5.8,7,9.8,8.9c2.1,1,4.3,1.4,6.6,1.6c2.1,0.2,4.2,0.3,6.2,0.4
				C758.4,534.2,758.3,530.4,755.9,530.2L755.9,530.2z"/>
		</g>
	</g>
	<g class="st1">
		<g>
			<path d="M767.9,460.1c0.3,0,0.3-0.4,0-0.4C767.6,459.7,767.6,460.1,767.9,460.1L767.9,460.1z"/>
		</g>
	</g>
	<g class="st1">
		<g>
			<path d="M768.2,459.1c-0.5,0.6-1.2,1.3-1.5,2c-0.5,1-0.3,2.7-0.3,3.8c-0.1,2.2-0.2,4.5-0.3,6.7c-0.1,4.6,0,9.1,0,13.7
				c0,9.2,0.6,18.4,1,27.6c0.4,9.1,0,18.3-0.1,27.4c-0.1,4.4-0.1,8.8-0.3,13.2c-0.1,2-0.3,3.9-0.4,5.9c-0.1,1-0.1,2-0.2,3
				c0,0.2-0.1,1.2-0.1,0.6c-0.1,0.6-0.2,1.1-0.3,1.7c-0.4,2-0.9,3.9-1.6,5.8c0,0-0.3,0.6-0.1,0.3c0.1-0.3-0.1,0.3-0.1,0.3
				c-0.2,0.4-0.4,0.9-0.6,1.3c-0.4,0.8-0.9,1.5-1.3,2.3c-0.2,0.4-0.5,0.7-0.8,1.1c0.4-0.5-0.2,0.2-0.3,0.4c-0.6,0.7-1.3,1.4-1.9,2
				c-0.6,0.6-1.2,1.1-1.8,1.6c0,0-0.5,0.4-0.2,0.2c0.3-0.3-0.3,0.2-0.4,0.3c-0.4,0.3-0.7,0.5-1.1,0.8c-1.5,1-3,1.8-4.5,2.9
				c-1.2,0.9-2.7,1.6-4.5,2.2c-1.8,0.6-3.7,1.1-5.7,1.3c-2,0.2-4.1,0.4-6,0.1c-3.9-0.6-7.7-1.6-11.4-3c-0.2-0.1-1.3-0.5-0.8-0.3
				c0.8,0.3-1-0.4-0.9-0.4c-0.2-0.1-0.3-0.1-0.5-0.2c-0.9-0.3-1.7-0.6-2.5-0.9c0.7,0.3,0.1,0-0.3-0.1c-0.4-0.2-0.8-0.4-1.1-0.5
				c-0.7-0.4-1.5-0.8-2.2-1.2c-0.7-0.4-1.3-0.8-1.9-1.2c-0.1-0.1-1.2-0.8-0.7-0.5c0.7,0.5-0.8-0.6-0.7-0.6c0.8,0.7,0.1,0.1,0-0.1
				c-0.3-0.2-3.3-3.3-3.2-3.3c0.1,0,0.5,0.7,0.1,0.1c-0.1-0.1-0.2-0.3-0.3-0.4c-0.2-0.3-0.4-0.7-0.6-1c-0.3-0.6-0.6-1.6-1.1-2.1
				c0,0,0.3,0.8,0.2,0.3c-0.1-0.2-0.2-0.4-0.2-0.6c-0.1-0.3-0.2-0.7-0.3-1c-0.1-0.4-0.2-0.8-0.3-1.3c0-0.2-0.1-0.4-0.1-0.6
				c-0.1-0.7,0.1,1.1,0-0.2c0-0.9-0.1-1.8,0-2.7c0-0.3,0.2-1.6,0-0.6c0.1-0.5,0.2-1,0.3-1.4c0.2-0.9,0.4-1.8,0.7-2.6
				c0.1-0.3,0.2-0.5,0.3-0.8c0-0.1,0.3-0.7,0.1-0.2c-0.3,0.8,0.5-1.1,0.4-1c0.5-1.2-0.3,0.5,0.1-0.2c0.9-1.7,1.7-3.4,2.8-5
				c0.3-0.4,0.6-0.8,0.8-1.2c0.2-0.3,0.9-1.2,0.3-0.5c0.6-0.7,1.2-1.5,1.8-2.2c1.3-1.4,2.6-2.6,4-3.9c-0.6,0.5,0,0,0.3-0.2
				c0.4-0.3,0.8-0.5,1.2-0.8c0.8-0.5,1.6-1,2.4-1.4c0.3-0.1,1.3-0.6,0.5-0.3c0.4-0.1,0.8-0.3,1.2-0.4c1-0.3,1.9-0.7,2.9-0.9
				c0.9-0.2,1.7-0.3,2.6-0.5c0.3,0,0.5-0.1,0.8-0.1c0,0,0.7-0.1,0.3,0c-0.4,0,0.3,0,0.3,0c0.3,0,0.5,0,0.8,0c0.9,0,1.8-0.1,2.8-0.1
				c0.8,0,1.6,0.2,2.4,0.4c2,0.6,3.5-2,2-3.4c-1.5-1.5-3.4-3.1-5.4-3.8c-2-0.8-4.3-1.3-6.4-1.2c-4.6,0.1-8.9,1.7-12.7,4.2
				c-3.6,2.4-6.6,5.4-9.3,8.8c-2.9,3.7-5.4,7.8-6.7,12.4c-2.5,8.5-0.7,17.3,5.4,23.8c5,5.3,12.4,9.1,19.6,10.1
				c2.3,0.3,4.7,0.6,7,0.6c2.2,0,4.4-0.2,6.6-0.2c4.5,0,9.2-0.5,13.6-1.7c1.8-0.5,3.7-0.9,5.4-1.5c1.9-0.6,3.7-1.8,5.3-3
				c3.4-2.5,6.3-5.5,8.7-9c2.4-3.6,4-7.7,4.8-11.9c0.9-4.5,1-8.9,0.8-13.5c-0.5-9.6-1.2-19.2-1.7-28.8c-0.3-4.9-0.4-9.8-0.4-14.7
				c0-4.9,0-9.8-0.1-14.7c-0.1-9.9-0.6-19.8-1.5-29.6c-0.1-1.2-0.1-2.4-0.3-3.5c-0.2-1-1.1-1.8-1.8-2.5
				C768.7,458.9,768.3,458.9,768.2,459.1L768.2,459.1z"/>
		</g>
	</g>
	<g class="st1">
		<g>
			<path d="M777.2,528.1c1,8,2,16.1,4.4,23.9c1.1,3.5,2.5,7,4.2,10.3c1.5,2.9,3.4,5.5,5.3,8.1c3.9,5.7,8.8,10.9,14.7,14.5
				c6.4,3.9,13.7,6,21.2,6.6c8.4,0.6,17.4-1.1,24.7-5.5c2.5-1.5,3.7-5.2,2-7.8c-1.6-2.6-5-3.7-7.8-2c-1.4,0.8-2.8,1.6-4.2,2.3
				c-0.3,0.2-0.7,0.4-1.1,0.5c1.3-0.3,0.1-0.1-0.2,0.1c-0.9,0.3-1.8,0.7-2.7,0.9c-1.4,0.4-2.8,0.8-4.3,1.1c-0.4,0.1-0.8,0.1-1.2,0.2
				c-1.3,0.2,1.1-0.1-0.2,0c-0.9,0.1-1.9,0.2-2.8,0.2c-1.6,0.1-3.2,0.1-4.9,0c-0.8-0.1-1.6-0.1-2.4-0.2c1.2,0.1-0.2,0-0.4-0.1
				c-0.4-0.1-0.8-0.1-1.2-0.2c-1.6-0.3-3.2-0.7-4.7-1.2c-0.8-0.2-1.5-0.5-2.3-0.8c-0.4-0.1-0.7-0.3-1.1-0.4c0.9,0.4-0.6-0.3-0.7-0.3
				c-5.6-2.6-10.3-5.7-14.5-9.9c-4.3-4.3-7.3-10.1-9.3-15.8c-2.8-7.9-3.9-16.3-4.9-24.5c-0.2-1.5-1.2-2.9-2.9-2.9
				C778.7,525.2,777,526.5,777.2,528.1L777.2,528.1z"/>
		</g>
	</g>
	<g class="st1">
		<g>
			<path d="M780.6,529.1c11.1-2.5,21.5-7.4,31-13.7c9.8-6.4,17.7-15.4,23.7-25.4c3.4-5.7,6.1-11.9,8.3-18.3c0.9-2.7-1.1-6.1-3.8-6.7
				c-2.9-0.7-5.9,0.9-6.7,3.8c-0.7,2.7-1.6,5.3-2.6,7.8c-0.1,0.3-0.4,1.1,0-0.1c-0.1,0.3-0.3,0.7-0.4,1c-0.2,0.6-0.5,1.1-0.8,1.7
				c-0.6,1.3-1.2,2.5-1.9,3.8c-1.3,2.4-2.7,4.8-4.2,7.1c-0.7,1-1.4,2-2.1,3c-0.4,0.5-0.8,1.1-1.2,1.6c-0.2,0.2-0.7,0.9,0,0
				c-0.5,0.6-1,1.2-1.4,1.9c-0.1,0.2-0.3,0.4-0.4,0.6c0.7-1,0,0-0.2,0.2c-0.4,0.5-0.8,1-1.2,1.4c-0.9,1.1-1.9,2.2-2.9,3.3
				c-1.8,2-3.8,3.8-5.7,5.7c-3.9,3.9-7.6,6.7-12.3,9.6c-5.1,3.2-10.6,5.8-16.3,7.7C777.2,526.2,778.2,529.7,780.6,529.1L780.6,529.1
				z"/>
		</g>
	</g>
	<circle class="st3" cx="779.8" cy="532.2" r="100.3"/>
	<g class="st1">
		<g>
			<path d="M-288.1,359.6c-0.5-2.6-0.8-5.2-1.2-7.8c-0.5-2.5-0.9-5-1.2-7.5c-0.4-2.6-0.7-5.2-0.9-7.9c-0.2-2.5-0.2-5-0.2-7.6
				c0-5.1-0.2-10.1-0.1-15.2c0.1-5.2,0.4-10.3,0.9-15.5c0.8-8.8,2.2-17.4,4.7-25.8c1.1-3.8,2.5-7.5,4.3-11c1.8-3.5,3.7-6.9,6.3-9.9
				c3-3.4,6.7-6.6,11.1-8.2c2.4-0.8,4.7-1.1,6.8,0.5c1.6,1.2,2.8,3.5,2.5,5.5c-0.1,0.6,0.7,1.1,1.1,0.5c2.2-3.6-0.6-7.7-4.1-9.3
				c-4.6-2.1-9.7-0.1-13.6,2.5c-7.3,4.9-12.9,12-16.5,19.9c-3.8,8.3-5.8,17.2-7,26.3c-1.6,11.2-2.2,22.6-1.3,34
				c0.2,3.1,0.6,6.2,1.2,9.3c0.6,3,1,6.1,1.5,9.1c0.5,3.1,1.2,6.2,1.9,9.3c0.7,3.1,1.8,6.1,2.7,9.1
				C-289.1,360.7-287.9,360.4-288.1,359.6L-288.1,359.6z"/>
		</g>
	</g>
	<g class="st1">
		<g>
			<path d="M-255.8,247.4c0,3.7-0.3,7.3-0.5,11c-0.1,3.5-0.1,7,0,10.5c0.1,7,0.2,14,0.3,21c0.2,7.2,0.4,14.3,0.3,21.5
				c-0.1,7-0.1,14-0.2,21c-0.2,28.3-0.3,56.6-0.4,85c0,8,0,16,0,24c0,8-0.1,16,0.9,24c0.1,1,1.5,1,1.6,0c0.9-7.1,0.9-14.3,0.9-21.5
				c0-7,0.1-14,0-21c0-14.2-0.1-28.3-0.2-42.5c-0.1-14.2-0.1-28.3-0.2-42.5c-0.1-14.2-0.4-28.3,0-42.5c0.2-8,0.4-16,0.5-24
				c0.1-4,0.1-8,0-12c0-4-0.4-8-0.5-12C-253.1,245.7-255.7,245.7-255.8,247.4L-255.8,247.4z"/>
		</g>
	</g>
	<g class="st1">
		<g>
			<path d="M-256.1,464.2c0.4,2.1,0.9,5-0.9,6.6c-1.6,1.3-3.9,0.6-5.5-0.3c-3.6-2-6.2-6-8.2-9.5c-4.5-7.6-6.7-16.3-8.4-24.8
				c-0.9-4.7-1.7-9.5-2.5-14.2c-0.8-5.3-1.3-10.6-0.9-16c0.7-8.6,4.4-17.2,12-21.8c4.3-2.6,9.5-3.9,14.5-4.1
				c6.2-0.3,12.4,0.9,18.5,1.2c0.7,0,0.8-1,0.2-1.2c-10.3-3.3-22.7-4.9-33-0.6c-4.8,2-8.7,5.2-11.5,9.6c-2.7,4.3-4.1,9.3-4.8,14.3
				c-0.7,5.9-0.1,11.8,0.8,17.6c0.8,5.3,1.9,10.6,3,15.9c2.1,9.5,4.9,19.1,10.7,27c2.7,3.8,6.5,8.5,11.4,9.2
				c2.1,0.3,4.2-0.5,5.2-2.4c1.2-2.1,0.6-4.7,0.1-6.9C-255.4,463.4-256.2,463.6-256.1,464.2L-256.1,464.2z"/>
		</g>
	</g>
	<g class="st1">
		<g>
			<path d="M-243,427.5c2.4-3.8,4.8-7.6,7.2-11.4c2.3-3.6,4.6-7.3,7.4-10.6c4.9-5.9,11.4-9.9,18.3-13.1c1.8-0.8,3.7-1.6,5.6-2.4
				c1.9-0.8,5-1.5,5.7-3.6c0.2-0.7-0.1-1.7-0.8-2c-1.9-1-4.1,0.4-5.8,1.2c-1.8,0.8-3.6,1.7-5.4,2.6c-3.5,1.8-6.9,3.7-10,6
				c-3.1,2.2-6,4.8-8.4,7.8c-2.7,3.4-4.9,7.1-7.1,10.8c-2.8,4.5-5.6,9-8.4,13.5C-245.6,427.6-243.8,428.7-243,427.5L-243,427.5z"/>
		</g>
	</g>
	<g class="st1">
		<g>
			<path d="M-244.1,426.2c1.8,6.3,3.5,12.8,5.9,18.9c2.2,5.6,4.5,11.1,8,15.9c3.4,4.6,7.6,9,12.8,11.6c2.7,1.4,5.6,2,8.6,1.4
				c2.7-0.5,5.2-2,7.2-3.8c2.5-2.2,4.1-5.2,5.3-8.3c0.6-1.6,1.1-3.2,1.5-4.9c0.2-0.8,0.4-1.7,0.5-2.5c0.1-0.9,0-1.7-0.1-2.6
				c-0.1-1.2-1.8-1.9-2.4-0.7c-0.3,0.6-0.8,1.2-1,1.8c-0.2,0.6-0.3,1.2-0.5,1.9c-0.4,1.4-0.7,2.8-1.2,4.1c-0.8,2.4-1.9,4.8-3.5,6.7
				c-1.5,1.8-3.5,3.3-5.8,4c-2.4,0.7-4.7,0.2-6.9-0.9c-4.5-2.4-8.4-6.2-11.6-10.1c-3.4-4.2-6.4-8.7-8.7-13.6
				c-3-6.2-5.2-12.7-7.3-19.2C-243.5,425.6-244.2,425.7-244.1,426.2L-244.1,426.2z"/>
		</g>
	</g>
	<g class="st1">
		<g>
			<path d="M-256.7,472c1.7-1.3,2.9-3.4,3.3-5.5c0.2-1.2,0.3-2.5,0.4-3.7c0.1-1.2,0.2-2.7-0.9-3.5c-0.1-0.1-0.4-0.1-0.6,0
				c-1,0.7-1,2-1.1,3.2c0,1.1,0,2.2-0.1,3.3c-0.1,1-0.2,1.9-0.5,2.9c-0.2,0.9-0.8,1.7-1.5,2.3C-258.1,471.4-257.3,472.5-256.7,472
				L-256.7,472z"/>
		</g>
	</g>
	<g class="st1">
		<g>
			<path d="M-245.1,427.6c0.7,2.3,1.4,4.5,2.2,6.7c0.8,2.3,1.9,4.5,2.8,6.8c0.8,2.2,1.7,4.3,2.6,6.4c0.9,2.2,2.2,4.2,3.5,6.3
				c0.2,0.3,0.7,0.1,0.6-0.2c-0.7-2.1-1.4-4.3-2.3-6.4c-1-2.2-1.9-4.5-2.8-6.8c-0.9-2.2-1.5-4.5-2.2-6.7c-0.7-2.2-1.5-4.5-2.2-6.7
				C-243.5,425.8-245.5,426.3-245.1,427.6L-245.1,427.6z"/>
		</g>
	</g>
	<g class="st1">
		<g>
			<path d="M-260.7,472.3c0.5,0,1,0,1.4,0c0.2,0,0.5,0,0.7,0c0.2,0,0.3,0,0.4,0c0.1,0,0.3-0.1,0.4-0.1c0.5-0.1,0.5-0.8,0-0.9
				c-0.3-0.1-0.5-0.1-0.8-0.1c-0.2,0-0.5,0-0.7,0c-0.5,0-1,0-1.4,0c-0.4,0-0.7,0.3-0.7,0.7C-261.4,472-261.1,472.3-260.7,472.3
				L-260.7,472.3z"/>
		</g>
	</g>
	<g class="st1">
		<g>
			<path d="M-259.1,472.2c0.6-0.3,1.2-0.6,1.7-1.1c0.1-0.1,0.2-0.2,0.3-0.3c0.1-0.1,0.3-0.3,0.4-0.4c0.2-0.3,0.3-0.6,0.4-0.9
				c0.1-0.3-0.2-0.5-0.4-0.3c-0.1,0.1-0.2,0.1-0.4,0.2c-0.1,0.1-0.3,0.1-0.4,0.2c-0.2,0.1-0.3,0.2-0.4,0.4c-0.1,0-0.1,0.1-0.2,0.1
				c-0.1,0.1,0.1,0,0,0c0,0-0.1,0-0.1,0.1c-0.5,0.4-1,0.7-1.6,0.9c-0.1,0.1-0.3,0.3-0.3,0.4c0,0.2,0,0.4,0.1,0.5
				C-259.8,472.3-259.4,472.4-259.1,472.2L-259.1,472.2z"/>
		</g>
	</g>
	<g class="st1">
		<g>
			<path d="M-256.7,469.5c0.5-1,0.9-2.1,1.2-3.2c0.3-1.1,0.5-2.2,0.5-3.4c0-0.2-0.3-0.3-0.4,0c-0.3,1.1-0.4,2.1-0.7,3.2
				c-0.3,1.1-0.7,2.1-1.2,3.1C-257.5,469.6-256.9,470-256.7,469.5L-256.7,469.5z"/>
		</g>
	</g>
	<g class="st1">
		<g>
			<path d="M-254.9,464.2c0.2-0.7,0.3-1.4,0.3-2c0-0.3,0.1-0.7,0-1c-0.1-0.3-0.2-0.6-0.3-0.9c-0.1-0.2-0.3-0.2-0.4,0
				c-0.1,0.3-0.2,0.6-0.3,0.9c-0.1,0.3-0.1,0.7-0.1,1c-0.1,0.6-0.2,1.2-0.4,1.8c-0.1,0.3,0.1,0.7,0.4,0.7
				C-255.3,464.7-255,464.6-254.9,464.2L-254.9,464.2z"/>
		</g>
	</g>
	<g class="st1">
		<g>
			<path d="M-265.6,470.7c1.2,1.3,3,1.5,4.7,1.5c1.1,0,2-0.2,2.8-0.8c0.7-0.5,1.2-1.2,1.7-2c1-1.4,1.4-3.1,1.8-4.8
				c0.2-0.8,0.3-1.7,0.4-2.6c0.1-0.8,0.3-2-0.3-2.6c-0.3-0.4-0.9-0.2-1.1,0.1c-0.4,0.5-0.1,1.6-0.2,2.2c0,0.7-0.1,1.4-0.2,2.1
				c-0.2,1.4-0.8,2.7-1.5,3.9c-0.7,1.1-1.6,2.5-3,2.5c-1.2,0-2.7,0-3.7-1C-265.1,468.4-266.5,469.8-265.6,470.7L-265.6,470.7z"/>
		</g>
	</g>
	<g class="st1">
		<g>
			<g>
				<path d="M956.5,319c-1.7-0.1-3.3-0.5-4.9-1.2c-1.6-0.7-3.1-1.7-4.6-2.6c-2.7-1.7-5-3.9-6.5-6.8c-0.6-1.2-1.1-2.8-1.4-4.4
					c-0.1-0.8-0.2-1.1-0.2-2.1c0-0.4,0-0.7,0-1.1c0-0.2,0-0.5,0.1-0.7c0-0.1,0.1-0.6,0-0.2c0.1-0.8,0.3-1.6,0.6-2.3
					c0.2-0.6,0.4-1.1,0.9-1.9c0.8-1.4,1.5-2.1,2.8-3.3c0.2-0.2,0.4-0.3,0.6-0.5c0,0,0.5-0.4,0.2-0.2c-0.2,0.2,0.2-0.2,0.2-0.2
					c0.2-0.1,0.4-0.3,0.6-0.4c0.7-0.5,1.4-0.9,2.2-1.4c1.4-0.9,2.9-1.7,4.4-2.5c3.1-1.7,6.1-3.6,8.7-5.9c5-4.4,9.2-10.7,11-17.1
					c2-7,2.7-16-1.3-22.5c-0.9-1.5-3.4-0.9-3.4,0.9c0,1.6-0.1,3.3,0,4.9c0.1,1.7,0.1,3.4,0,5.2c-0.1,0.7-0.1,1.4-0.2,1.8
					c-0.1,0.9-0.3,1.8-0.5,2.6c-0.4,1.6-0.9,3.2-1.4,4.8c-0.3,0.8-0.6,1.6-0.9,2.3c-0.1,0.2-0.1,0.3-0.2,0.5
					c0.1-0.1,0.2-0.5-0.1,0.1c-0.2,0.4-0.4,0.9-0.6,1.3c-0.7,1.5-1.6,2.9-2.5,4.3c-1,1.6-1.4,2-2.7,3.5c-1.1,1.2-2.3,2.4-3.6,3.4
					c-0.1,0-0.5,0.4-0.1,0.1c-0.1,0.1-0.3,0.2-0.4,0.3c-0.3,0.2-0.7,0.5-1,0.7c-0.7,0.5-1.5,0.9-2.2,1.4c-1.6,0.9-3.2,1.8-4.7,2.7
					c-3.1,1.8-6.2,3.8-8.6,6.5c-5.3,6.1-5.9,15.1-1.9,22.1c2.1,3.7,5.5,6.7,9.3,8.6c3.7,1.8,8.3,2.1,12.3,2.2
					C958.4,322,958.4,319.1,956.5,319L956.5,319z"/>
			</g>
		</g>
		<g>
			<g>
				<path d="M968.8,247.5c-0.4,0.8-1,1.6-1.2,2.5c-0.2,1.2-0.1,2.5-0.1,3.7c-0.1,2.2-0.2,4.5-0.2,6.7c0,4.6,0.1,9.1,0.1,13.7
					c0.1,9.2,0.6,18.4,0.9,27.6c0.4,9.1,0.1,18.3,0.1,27.4c0,4.3,0,8.6-0.1,13c-0.1,3.8-0.3,7.8-1,11.5c-1.4,7-5,12.8-10.9,16.7
					c-2.9,1.9-5.8,3.8-9.1,4.9c-4,1.3-8.3,1.9-12.5,1.4c-3.8-0.5-7.6-1.4-11.2-2.7c-3.2-1.1-5.6-2-8.5-3.7c-0.7-0.4-1.3-0.8-1.9-1.2
					c-0.3-0.2-0.7-0.5-1-0.7c0,0-0.4-0.4-0.2-0.2c0.2,0.2-0.3-0.2-0.3-0.3c-0.6-0.5-1.2-1.1-1.8-1.6c-0.4-0.4-1.2-1.4-1.4-1.6
					c0.1,0.1-0.4-0.6-0.5-0.7c-0.2-0.3-0.4-0.6-0.5-0.8c-0.4-0.7-0.8-1.4-1.1-2.1c0.2,0.5-0.1-0.4-0.2-0.6c-0.1-0.4-0.2-0.8-0.3-1.1
					c-0.2-0.8-0.4-1.7-0.4-2.2c-0.1-0.9-0.1-1.8,0-2.7c0.1-1,0.1-1.4,0.4-2.5c0.4-1.7,1.1-3.6,1.6-4.9c1.6-3.5,3.6-6.5,6-9.1
					c4.7-5.2,10.9-8.8,18.1-8.6c1.9,0,3.5,0.1,5.3,0.7c1.4,0.5,2.7-1.6,1.5-2.6c-3.3-2.8-7.2-4.5-11.5-4.3
					c-4.4,0.2-8.5,1.7-12.1,4.2c-7,4.7-12.8,12.2-15.4,20.2c-2.5,8-0.9,16.5,4.8,22.7c4.8,5.2,12,8.9,19,10.1
					c4.5,0.8,8.8,0.7,13.3,0.7c4.5,0,9.1-0.5,13.4-1.7c1.8-0.5,3.6-1,5.4-1.6c1.9-0.7,3.6-1.8,5.3-3c3.2-2.3,5.9-5.1,8.1-8.3
					c5-7.2,6-16.2,5.7-24.8c-0.4-9.6-1-19.1-1.5-28.7c-0.5-9.9-0.4-19.8-0.5-29.6c-0.1-9.8-0.5-19.6-1.3-29.4
					c-0.1-1.2-0.1-2.3-0.3-3.5c-0.1-1.1-0.8-2-1.4-2.9C969.3,247.3,968.9,247.3,968.8,247.5L968.8,247.5z"/>
			</g>
		</g>
		<g>
			<g>
				<path d="M978.6,316.4c1,8,2,16,4.4,23.7c1.1,3.5,2.4,6.9,4.2,10.1c1.5,2.9,3.4,5.5,5.3,8.1c3.9,5.5,8.8,10.5,14.6,13.9
					c6.3,3.7,13.4,5.8,20.7,6.3c8.2,0.5,16.9-1.2,23.9-5.5c1.9-1.1,2.8-3.9,1.5-5.8c-1.2-1.9-3.8-2.8-5.8-1.5
					c-3.2,1.9-5.3,2.9-8.5,3.9c-1.4,0.4-2.9,0.8-4.3,1c-1.6,0.3-2.6,0.4-4.6,0.5c-6.3,0.3-12.5-0.9-18.2-3.6
					c-5.4-2.6-10.3-6-14.5-10.3c-4.3-4.5-7.4-10.3-9.4-16.1c-2.8-8-3.9-16.4-4.9-24.7c-0.1-1.1-0.9-2.1-2.1-2.1
					C979.7,314.2,978.4,315.2,978.6,316.4L978.6,316.4z"/>
			</g>
		</g>
		<g>
			<g>
				<path d="M981.1,317c11-2.7,21.3-7.6,30.6-14.1c9.4-6.5,17.3-15.4,23.1-25.2c3.4-5.7,6-11.8,8.1-18c0.7-2-0.8-4.5-2.8-5
					c-2.2-0.5-4.4,0.6-5,2.8c-0.7,2.7-1.6,5.3-2.7,7.8c-0.1,0.2-0.4,0.9-0.1,0.2c-0.1,0.3-0.3,0.7-0.4,1c-0.2,0.6-0.5,1.1-0.8,1.7
					c-0.6,1.3-1.2,2.5-1.9,3.8c-1.3,2.4-2.7,4.8-4.2,7.1c-1.5,2.3-3,4.3-4.4,6.1c-6.6,8.4-14.5,15.9-23.6,21.4
					c-5.2,3.2-10.8,5.7-16.6,7.6C978.6,314.8,979.3,317.4,981.1,317L981.1,317z"/>
			</g>
		</g>
		<circle class="st4" cx="980.4" cy="320.5" r="100.3"/>
	</g>
</g>
<g id="Livello_3" class="st0">
	<path class="st5" d="M281.6,205v23.8h-81v-27h77.8C280.2,201.7,281.6,203.2,281.6,205z"/>
	<rect x="254.6" y="228.7" class="st5" width="27" height="108"/>
	<path class="st5" d="M200.6,201.7v27c-7.5,0-13.5-6-13.5-13.5C187.1,207.8,193.2,201.7,200.6,201.7z"/>
	<path class="st5" d="M254.6,336.7h27c0,7.5-6,13.5-13.5,13.5C260.7,350.2,254.6,344.2,254.6,336.7z"/>
	<path class="st5" d="M173.6,309.7h-27c0-7.5,6-13.5,13.5-13.5C167.6,296.2,173.6,302.3,173.6,309.7z"/>
	<path class="st5" d="M420.4,312.4h-27c0-7.5,6-13.5,13.5-13.5C414.3,298.9,420.4,304.9,420.4,312.4z"/>
	<path class="st6" d="M281.6,205c0,1.8-1.5,3.2-3.2,3.2c-1.8,0-3.2-1.5-3.2-3.2c0-1.8,1.5-3.2,3.2-3.2
		C280.2,201.7,281.6,203.2,281.6,205z"/>
	<path class="st7" d="M254.6,228.7v3.2c0-1.8-1.5-3.2-3.2-3.2H254.6z"/>
	<path class="st6" d="M254.6,232c0,1.8-1.5,3.2-3.2,3.2c-1.8,0-3.2-1.5-3.2-3.2c0-1.8,1.5-3.2,3.2-3.2
		C253.2,228.7,254.6,230.2,254.6,232z"/>
	<path class="st6" d="M288.1,249.7c0,1-0.5,1.9-1.2,2.5l-0.1,0.1l-0.4,0.3l0,0c-0.5,0.2-1,0.4-1.5,0.4c-1.8,0-3.2-1.5-3.2-3.2
		s1.5-3.2,3.2-3.2S288.1,247.9,288.1,249.7z"/>
	<path class="st8" d="M314.8,272c0,1.8-1.5,3.2-3.2,3.2c-0.5,0-0.9-0.1-1.3-0.3c-0.3-0.1-0.6-0.3-0.8-0.6c-0.6-0.6-1.1-1.4-1.1-2.4
		s0.4-1.8,1.1-2.4c0.2-0.2,0.5-0.4,0.8-0.5c0.4-0.2,0.9-0.3,1.4-0.3C313.4,268.8,314.8,270.2,314.8,272z"/>
	<path class="st6" d="M288.1,294.3c0,1.8-1.5,3.2-3.2,3.2s-3.2-1.5-3.2-3.2c0-1.8,1.5-3.2,3.2-3.2c0.4,0,0.8,0.1,1.2,0.2
		c0.4,0.2,0.8,0.4,1,0.7l0,0C287.8,292.6,288.1,293.4,288.1,294.3z"/>
	<path class="st6" d="M254.6,312.2c0,1.8-1.5,3.2-3.2,3.2c-1.8,0-3.2-1.5-3.2-3.2c0-0.9,0.4-1.7,1-2.3l0,0c0.3-0.3,0.7-0.5,1-0.7
		c0.4-0.2,0.8-0.2,1.2-0.2C253.2,308.9,254.6,310.4,254.6,312.2z"/>
	<path class="st6" d="M254.6,272c0,1-0.4,1.9-1.1,2.5l-0.7,0.5c-0.4,0.2-0.9,0.3-1.4,0.3c-1.8,0-3.2-1.5-3.2-3.2s1.5-3.2,3.2-3.2
		C253.2,268.8,254.6,270.3,254.6,272z"/>
	<polyline class="st9" points="362.6,201.7 322.1,228.8 286.9,252.2 286.9,252.2 286.5,252.5 286.4,252.5 	"/>
	<path class="st9" d="M163,337.4"/>
	<polyline class="st9" points="246.2,336.7 224.6,336.7 190,337.4 	"/>
	<path class="st10" d="M173.6,337.1"/>
	<path class="st11" d="M200.6,309.8v32.4c-13.6,7.6-30,6.4-41.2-2.8c-13.2-10.9-12.8-27.7-12.7-29.6h27
		C173.6,309.7,169.5,330.6,200.6,309.8z"/>
	<path class="st12" d="M200.8,309.7c-0.1,0-0.1,0.1-0.2,0.1"/>
	<polygon class="st5" points="366.4,312.4 366.4,344.8 358.7,339.7 287.2,292 287.2,292 286.1,291.3 281.6,288.3 281.6,255.9 
		305.4,271.8 305.8,272 309.4,274.4 310.3,275 	"/>
	<polygon class="st5" points="254.6,273.8 254.6,306.2 250.2,309.2 249.1,309.9 249.1,309.9 208.3,337.1 200.6,342.2 200.6,309.8 
		252.8,275 253.5,274.5 	"/>
	<path class="st5" d="M308.4,272c0,1,0.4,1.8,1.1,2.4l-3.6-2.4l3.6-2.4C308.8,270.2,308.4,271.1,308.4,272z"/>
	<path class="st5" d="M337.1,251.2L337.1,251.2l-26.9,17.8l-0.8,0.5l-3.6,2.4l-0.4-0.3l-23.8-16l4.8-3.2l0,0l0.4-0.3l0.1-0.1
		l35.2-23.4l0,0c6.2-4.1,14.6-2.5,18.7,3.8C345,238.7,343.3,247.1,337.1,251.2z"/>
	<path class="st9" d="M404,337.4"/>
	<polyline class="st9" points="377,337.4 342.4,336.7 320.8,336.7 	"/>
	<path class="st10" d="M393.4,337.1"/>
	<path class="st11" d="M366.4,312.5v32.4c13.6,7.6,30,6.4,41.2-2.8c13.2-10.9,12.8-27.7,12.7-29.6h-27
		C393.4,312.4,397.5,333.2,366.4,312.5z"/>
	<path class="st12" d="M366.4,309.8c-0.1,0-0.1-0.1-0.2-0.1"/>
	<path class="st1" d="M286.1,291.3c-0.4-0.1-0.8-0.2-1.2-0.2c-1.8,0-3.2,1.5-3.2,3.2v-6L286.1,291.3z"/>
	<polygon class="st1" points="305.4,271.8 281.6,255.9 281.6,255.7 	"/>
	<path class="st1" d="M286.4,252.5l-4.8,3.2v-6c0,1.8,1.5,3.2,3.2,3.2C285.4,252.9,286,252.8,286.4,252.5z"/>
	<polyline class="st9" points="281.6,255.9 281.6,257.7 281.6,288.4 	"/>
	<path class="st1" d="M254.6,272v1.7l-1.1,0.8C254.2,273.9,254.6,273,254.6,272z"/>
	<polyline class="st9" points="254.6,232 254.6,243 254.6,272 	"/>
	<path class="st1" d="M254.6,306.2v6c0-1.8-1.5-3.2-3.2-3.2c-0.4,0-0.9,0.1-1.2,0.2L254.6,306.2z"/>
	<line class="st9" x1="254.6" y1="312.4" x2="254.6" y2="312.2"/>
	<polyline class="st9" points="254.6,273.8 254.6,301.3 254.6,306.2 	"/>
</g>
<g id="Full_logo" class="st0">
	<path class="st1" d="M389.5,274.7c0-5.5-4.4-9.9-9.9-9.9c-5.5,0-9.9,4.4-9.9,9.9c0,0,3,15.3-19.8,0.1v-0.1l-41.1-27.4l-0.6-0.4
		c-0.5-0.4-0.8-1.1-0.8-1.8s0.3-1.3,0.8-1.8l0.6-0.4l19.7-13.1l0,0c4.5-3,5.8-9.2,2.7-13.7c-3-4.6-9.2-5.8-13.7-2.7l0,0l-25.8,17.2
		l-0.1,0l-0.3,0.2l0,0c-0.3,0.2-0.7,0.3-1.1,0.3c-1.3,0-2.4-1.1-2.4-2.4v-15.4V196c0-1.3-1.1-2.4-2.4-2.4h-57
		c-5.5,0-9.9,4.4-9.9,9.9c0,5.5,4.4,9.9,9.9,9.9h37.2c1.3,0,2.4,1.1,2.4,2.4v0v8.1v21.3c0,0.7-0.3,1.4-0.8,1.8l-0.5,0.3l-38.3,25.5
		v0.1c-22.8,15.2-19.8-0.1-19.8-0.1c0-5.5-4.4-9.9-9.9-9.9c-5.5,0-9.9,4.4-9.9,9.9h0c-0.1,1.5-0.4,13.8,9.3,21.7
		c8.2,6.8,20.3,7.6,30.2,2.1l5.6-3.8l29.9-19.9l0,0l0.8-0.5c0.3-0.1,0.6-0.2,0.9-0.2c1.3,0,2.4,1.1,2.4,2.4v0v0.1v17.9
		c0,5.5,4.4,9.9,9.9,9.9c5.5,0,9.9-4.4,9.9-9.9v-31.1c0-1.3,1.1-2.4,2.4-2.4c0.3,0,0.6,0.1,0.9,0.2l0.8,0.5l0,0l52.4,34.9l5.6,3.8v0
		c10,5.6,22,4.7,30.2-2.1C389.9,288.4,389.6,276.1,389.5,274.7L389.5,274.7z"/>
	<g class="st1">
		<rect x="210.6" y="312.2" class="st13" width="157.2" height="20.6"/>
		<path d="M213.4,313.7h1.7v18.7h-1.7V313.7z"/>
		<path d="M219.5,332.4v-20.2h1.6v20.2H219.5z"/>
		<path d="M225.2,314.3c0-0.8,0.5-1.3,1.3-1.3c0.8,0,1.3,0.5,1.3,1.3c0,0.8-0.5,1.3-1.3,1.3C225.6,315.5,225.2,315,225.2,314.3z
			 M225.6,319.2h1.6v13.2h-1.6V319.2z"/>
		<path d="M242.2,319.2h1.6v13.2h-1.6V330c-1.1,1.6-2.8,2.8-5,2.8c-3.8,0-6.7-2.9-6.7-7c0-4.3,2.9-7,6.7-7c2.3,0,4,1.1,5,2.8V319.2z
			 M242.4,325.8c0-3.4-2.2-5.6-5.1-5.6c-2.9,0-5.1,2.1-5.1,5.6c0,3.3,2.2,5.6,5.1,5.6C240.2,331.4,242.4,329.2,242.4,325.8z"/>
		<path d="M255.5,329c0,2.3-2,3.8-4.4,3.8c-2.1,0-3.8-1.2-4.8-3.2l1.3-0.7c0.7,1.6,2,2.5,3.4,2.5c1.5,0,2.8-0.9,2.8-2.4
			c0-3-6.8-2.4-6.8-6.5c0-2.4,2.1-3.7,4-3.7c1.8,0,3.2,0.8,3.9,2.5l-1.3,0.6c-0.5-1.1-1.5-1.8-2.7-1.8c-1.3,0-2.4,1-2.4,2.3
			C248.7,325.2,255.5,324.6,255.5,329z"/>
		<path d="M265.9,329c0,2.3-2,3.8-4.4,3.8c-2.1,0-3.8-1.2-4.8-3.2l1.3-0.7c0.7,1.6,2,2.5,3.4,2.5c1.5,0,2.8-0.9,2.8-2.4
			c0-3-6.8-2.4-6.8-6.5c0-2.4,2.1-3.7,4-3.7c1.8,0,3.2,0.8,3.9,2.5l-1.3,0.6c-0.5-1.1-1.5-1.8-2.7-1.8c-1.3,0-2.4,1-2.4,2.3
			C259,325.2,265.9,324.6,265.9,329z"/>
		<path d="M285.6,332.4l-9.6-8.6v8.6h-1.6v-18.7h1.6v8.3l8.9-8.3h2.3l-9.8,9.2l10.6,9.5H285.6z"/>
		<path d="M287.5,325.8c0-4.2,3-7,7-7c3.9,0,6.9,2.8,6.9,7s-3,7-6.9,7C290.5,332.8,287.5,330,287.5,325.8z M299.8,325.8
			c0-3.3-2.2-5.6-5.3-5.6c-3.1,0-5.4,2.3-5.4,5.6c0,3.3,2.3,5.6,5.4,5.6C297.5,331.4,299.8,329,299.8,325.8z"/>
		<path d="M313.5,319.2h1.6v13.2h-1.6V330c-0.8,1.6-2.2,2.8-4.4,2.8c-3.1,0-5.1-2.1-5.1-5.1v-8.5h1.6v8.3c0,2.5,1.3,3.9,3.7,3.9
			c2.7,0,4.2-2.5,4.2-4.8V319.2z"/>
		<path d="M330.6,324v8.4H329v-8.2c0-2.6-1.3-4-3.9-4c-2.8,0-4.5,2.5-4.5,5v7.2h-1.6v-20.3h1.6v9.6c0.8-1.7,2.3-2.9,4.6-2.9
			C328.4,318.8,330.6,320.8,330.6,324z"/>
		<path d="M345.9,324v8.4h-1.6v-8.2c0-2.6-1.3-4-3.9-4c-2.8,0-4.5,2.5-4.5,5v7.2h-1.6v-20.3h1.6v9.6c0.8-1.7,2.3-2.9,4.6-2.9
			C343.8,318.8,345.9,320.8,345.9,324z"/>
		<path d="M349.7,314.3c0-0.8,0.5-1.3,1.3-1.3c0.8,0,1.3,0.5,1.3,1.3c0,0.8-0.5,1.3-1.3,1.3C350.2,315.5,349.7,315,349.7,314.3z
			 M350.1,319.2h1.6v13.2h-1.6V319.2z"/>
		<path d="M364.4,331v1.4h-9.8l-0.2-1.6l8-10.2h-7.7v-1.4h9.3l0.2,1.6l-8,10.2H364.4z"/>
	</g>
</g>
<g id="Only_icon">
	<path d="M399.1,277.2c0-5.5-4.4-9.9-9.9-9.9c-5.5,0-9.9,4.4-9.9,9.9c0,0,3,15.3-19.8,0.1v-0.1l-41.1-27.4l-0.6-0.4
		c-0.5-0.4-0.8-1.1-0.8-1.8s0.3-1.3,0.8-1.8l0.6-0.4l19.7-13.1l0,0c4.5-3,5.8-9.2,2.7-13.7c-3-4.6-9.2-5.8-13.7-2.7l0,0l-25.8,17.2
		l-0.1,0l-0.3,0.2l0,0c-0.3,0.2-0.7,0.3-1.1,0.3c-1.3,0-2.4-1.1-2.4-2.4v-15.4v-17.4c0-1.3-1.1-2.4-2.4-2.4h-57
		c-5.5,0-9.9,4.4-9.9,9.9c0,5.5,4.4,9.9,9.9,9.9h37.2c1.3,0,2.4,1.1,2.4,2.4v0v8.1v21.3c0,0.7-0.3,1.4-0.8,1.8l-0.5,0.3l-38.3,25.5
		v0.1c-22.8,15.2-19.8-0.1-19.8-0.1c0-5.5-4.4-9.9-9.9-9.9c-5.5,0-9.9,4.4-9.9,9.9h0c-0.1,1.5-0.4,13.8,9.3,21.7
		c8.2,6.8,20.3,7.6,30.2,2.1l5.6-3.8l29.9-19.9l0,0l0.8-0.5c0.3-0.1,0.6-0.2,0.9-0.2c1.3,0,2.4,1.1,2.4,2.4v0v0.1v17.9
		c0,5.5,4.4,9.9,9.9,9.9c5.5,0,9.9-4.4,9.9-9.9V264c0-1.3,1.1-2.4,2.4-2.4c0.3,0,0.6,0.1,0.9,0.2l0.8,0.5l0,0l52.4,34.9l5.6,3.8v0
		c10,5.6,22,4.7,30.2-2.1C399.5,291,399.2,278.7,399.1,277.2L399.1,277.2z"/>
	<g>
	</g>
	<g>
	</g>
	<g>
	</g>
	<g>
	</g>
	<g>
	</g>
	<g>
	</g>
</g>
</svg>
