<?xml version="1.0" encoding="utf-8"?>
<!-- Generator: Adobe Illustrator 25.2.2, SVG Export Plug-In . SVG Version: 6.00 Build 0)  -->
<!DOCTYPE svg PUBLIC "-//W3C//DTD SVG 1.1//EN" "http://www.w3.org/Graphics/SVG/1.1/DTD/svg11.dtd" [
	<!ENTITY ns_extend "http://ns.adobe.com/Extensibility/1.0/">
	<!ENTITY ns_ai "http://ns.adobe.com/AdobeIllustrator/10.0/">
	<!ENTITY ns_graphs "http://ns.adobe.com/Graphs/1.0/">
	<!ENTITY ns_vars "http://ns.adobe.com/Variables/1.0/">
	<!ENTITY ns_imrep "http://ns.adobe.com/ImageReplacement/1.0/">
	<!ENTITY ns_sfw "http://ns.adobe.com/SaveForWeb/1.0/">
	<!ENTITY ns_custom "http://ns.adobe.com/GenericCustomNamespace/1.0/">
	<!ENTITY ns_adobe_xpath "http://ns.adobe.com/XPath/1.0/">
]>
<svg version="1.1" id="Livello_4" xmlns:x="&ns_extend;" xmlns:i="&ns_ai;" xmlns:graph="&ns_graphs;"
	 xmlns="http://www.w3.org/2000/svg" xmlns:xlink="http://www.w3.org/1999/xlink" x="0px" y="0px" viewBox="0 0 566.9 566.9"
	 style="enable-background:new 0 0 566.9 566.9;" xml:space="preserve">
<style type="text/css">
	.Ombra_x0020_esterna{fill:none;}
	.Angoli_x0020_arrotondati_x0020_2_x0020_pt{fill:#FFFFFF;stroke:#000000;stroke-miterlimit:10;}
	.Riflessione_x0020_X_x0020_dinamica{fill:none;}
	.Smusso_x0020_morbido{fill:url(#SVGID_1_);}
	.Crepuscolo{fill:#FFFFFF;}
	.Fogliame_GS{fill:#FFDD00;}
	.Pompadour_GS{fill-rule:evenodd;clip-rule:evenodd;fill:#51AEE2;}
	.st0{fill:#EE764A;}
</style>
<metadata>
	<sfw  xmlns="&ns_sfw;">
		<slices></slices>
		<sliceSourceBounds  bottomLeftOrigin="true" height="108.8" width="200.6" x="188.9" y="-302.4"></sliceSourceBounds>
	</sfw>
</metadata>
<linearGradient id="SVGID_1_" gradientUnits="userSpaceOnUse" x1="0" y1="0" x2="0.7071" y2="0.7071">
	<stop  offset="0" style="stop-color:#E6E6EB"/>
	<stop  offset="0.1738" style="stop-color:#E2E2E6"/>
	<stop  offset="0.352" style="stop-color:#D5D4D8"/>
	<stop  offset="0.5323" style="stop-color:#C0BFC2"/>
	<stop  offset="0.7139" style="stop-color:#A4A2A4"/>
	<stop  offset="0.8949" style="stop-color:#828282"/>
	<stop  offset="1" style="stop-color:#6B6E6E"/>
</linearGradient>
<path class="st0" d="M389.5,274.7c0-5.5-4.4-9.9-9.9-9.9c-5.5,0-9.9,4.4-9.9,9.9c0,0,3,15.3-19.8,0.1v-0.1l-41.1-27.4l-0.6-0.4
	c-0.5-0.4-0.8-1.1-0.8-1.8s0.3-1.3,0.8-1.8l0.6-0.4l19.7-13.1l0,0c4.5-3,5.8-9.2,2.7-13.7c-3-4.6-9.2-5.8-13.7-2.7l0,0l-25.8,17.2
	l-0.1,0l-0.3,0.2l0,0c-0.3,0.2-0.7,0.3-1.1,0.3c-1.3,0-2.4-1.1-2.4-2.4v-15.4V196c0-1.3-1.1-2.4-2.4-2.4h-57c-5.5,0-9.9,4.4-9.9,9.9
	c0,5.5,4.4,9.9,9.9,9.9h37.2c1.3,0,2.4,1.1,2.4,2.4v0v8.1v21.3c0,0.7-0.3,1.4-0.8,1.8l-0.5,0.3l-38.3,25.5v0.1
	c-22.8,15.2-19.8-0.1-19.8-0.1c0-5.5-4.4-9.9-9.9-9.9c-5.5,0-9.9,4.4-9.9,9.9h0c-0.1,1.5-0.4,13.8,9.3,21.7
	c8.2,6.8,20.3,7.6,30.2,2.1l5.6-3.8l29.9-19.9l0,0l0.8-0.5c0.3-0.1,0.6-0.2,0.9-0.2c1.3,0,2.4,1.1,2.4,2.4v0v0.1v17.9
	c0,5.5,4.4,9.9,9.9,9.9c5.5,0,9.9-4.4,9.9-9.9v-31.1c0-1.3,1.1-2.4,2.4-2.4c0.3,0,0.6,0.1,0.9,0.2l0.8,0.5l0,0l52.4,34.9l5.6,3.8v0
	c10,5.6,22,4.7,30.2-2.1C389.9,288.4,389.6,276.1,389.5,274.7L389.5,274.7z"/>
<g>
</g>
<g>
</g>
<g>
</g>
<g>
</g>
<g>
</g>
<g>
</g>
</svg>
